Simulation
nRows=48
nColumns=15
endheader
time  TH_x TH_y TH_z SC_y  SC_z  SC_x  AC_y  AC_z  AC_x  GH_y  GH_z  GH_yy  EL_x  PS_y
5.745  0.000000  0.000000  0.000000  -51.29647711483002  16.728441417592492  15.728189138581554  47.81336232903505  13.714277815104486  14.380161096247734  32.664149998208465  54.713425124286566  -42.93046834181699  18.584295684045614  120.000000
5.80245  0.000000  0.000000  0.000000  -50.14761716457052  16.18116150077143  13.212148019817189  47.40731703415283  13.249988004661578  13.448648234397286  33.695707683362485  53.86647406240745  -43.557540821698225  18.87762585126471  120.000000
5.8599  0.000000  0.000000  0.000000  -48.78794856575297  15.465363090457243  10.118703368201995  46.84451108355584  12.732467453215174  12.578075376507325  34.8583328624431  52.595862559268326  -43.999270708726996  19.27132612880679  120.000000
5.91735  0.000000  0.000000  0.000000  -47.259367007846755  14.54189716146641  6.577042964657052  46.11174098294362  12.221427175235533  11.837034174227695  36.047255249603836  50.878753245610326  -44.17536056798232  19.675800198410762  120.000000
5.9748  0.000000  0.000000  0.000000  -45.601721193798  13.397327992765774  2.744189644376016  45.21075756171907  11.803154711022698  11.277205992301026  37.17054472051085  48.703575192936924  -44.04921588915139  19.982432701465854  120.000000
6.03225  0.000000  0.000000  0.000000  -43.85169016335115  12.04609526998824  -1.2090573631496881  44.16877652237112  11.576017230706864  10.928571785944117  38.16634773233082  46.07863821344591  -43.64314296266115  20.096735641410586  120.000000
6.089700000000001  0.000000  0.000000  0.000000  -42.04813840413427  10.526719683348265  -5.1131204480872885  43.041630382793436  11.632010675783272  10.798780160278817  39.02089964257183  43.04270373478644  -43.0397377417761  19.966892576795594  120.000000
6.14715  0.000000  0.000000  0.000000  -40.244688404871646  8.895476451739396  -8.812835709339764  41.903511561149905  12.03506878658047  10.880428330935876  39.780255193542395  39.67592409994161  -42.37115022473243  19.592022480026774  120.000000
6.2046  0.000000  0.000000  0.000000  -38.51875221961842  7.225236263711419  -12.18388823827636  40.835541872915556  12.802565267585644  11.155703532320578  40.555457667606404  36.1041502075169  -41.80227324430865  19.009539300478043  120.000000
6.26205  0.000000  0.000000  0.000000  -36.964857045134494  5.600753027349087  -15.147385677355707  39.91369823840736  13.89678301639477  11.597188980337775  41.520633806525495  32.48405194568647  -41.51477488384657  18.279306049952844  120.000000
6.3195  0.000000  0.000000  0.000000  -35.67507266947369  4.108835510548207  -17.670165364504186  39.18968566999652  15.230053159070945  12.172522588382071  42.896639320756435  28.97159399093018  -41.68951997823004  17.47492033936264  120.000000
6.37695  0.000000  0.000000  0.000000  -34.712532531375814  2.8268654037044896  -19.753414386806455  38.684653976950294  16.687642168532747  12.845335421546434  44.923571274589236  25.696713675200495  -42.49229324837681  16.680422883644205  120.000000
6.4344  0.000000  0.000000  0.000000  -34.09248521231799  1.8096709012923855  -21.416901880973573  38.393369515242746  18.1547631267755  13.57735544773644  47.822655969022875  22.75216567658468  -44.06080911313927  15.982771474759152  120.000000
6.49185  0.000000  0.000000  0.000000  -33.78635103538883  1.080671077184757  -22.687068988379497  38.28515680413822  19.535702513363084  14.332868684202474  51.74067425615367  20.193425983027094  -46.47949861997668  15.457493984720301  120.000000
6.549300000000001  0.000000  0.000000  0.000000  -33.736615164544745  0.6347337968451118  -23.59619001566162  38.31455543732532  20.76440826463782  15.075307334833242  56.70189134887455  18.046572808719485  -49.75519479692016  15.153667468238819  120.000000
6.60675  0.000000  0.000000  0.000000  -33.87275538728478  0.4387278770407575  -24.183511937228197  38.43221902557378  21.80558303423753  15.766176135439247  62.57928318372596  16.31450456188786  -53.79707752184582  15.085056471077468  120.000000
6.6642  0.000000  0.000000  0.000000  -34.12577463450842  0.4414772970518719  -24.494251430798087  38.5898812137429  22.648233010443626  16.370101201704884  69.09377649317126  14.976360540249088  -58.40500461780165  15.234526002991059  120.000000
6.72165  0.000000  0.000000  0.000000  -34.436749846682886  0.58788663053369  -24.578581880892727  38.74502823144154  23.29858698298329  16.858461345270705  75.85699928854946  13.985167695856944  -63.28748925614298  15.563332153445195  120.000000
6.7791  0.000000  0.000000  0.000000  -34.75931321855048  0.822235598152727  -24.48565489870161  38.86869066482558  23.771475357623608  17.21070197543939  82.46831942057968  13.272372360643034  -68.13103307698972  16.01341634773597  120.000000
6.83655  0.000000  0.000000  0.000000  -35.05835643193881  1.0913731000570233  -24.256352037578914  38.9522978159544  24.081960172130927  17.415382711941387  88.62625903566898  12.76155850604106  -72.69077993627174  16.508203882624898  120.000000
6.894  0.000000  0.000000  0.000000  -35.30857509712579  1.35291215470738  -23.923894845232326  39.00625054073132  24.244436858263054  17.470857285498525  94.17157864245955  12.38519993171833  -76.83098770979564  16.960657845022364  120.000000
6.95145  0.000000  0.000000  0.000000  -35.49291579796135  1.5814502167804492  -23.515501206912667  39.052728703392305  24.275592206215933  17.38399098897727  99.06278283801188  12.093277347044683  -80.5114280318607  17.291958398676712  120.000000
7.008900000000001  0.000000  0.000000  0.000000  -35.605549169871665  1.765010620870713  -23.050470378750735  39.112298172522614  24.194282437069774  17.170431124873573  103.3284235364646  11.851377912602484  -83.75450696549613  17.457053320572907  120.000000
7.06635  0.000000  0.000000  0.000000  -35.65689494543392  1.8996919834461217  -22.539807044702414  39.192629095546685  24.01964551814467  16.853910764682073  107.0250511897567  11.635774150267515  -86.61484596084811  17.464627271390107  120.000000
7.1238  0.000000  0.000000  0.000000  -35.671668920924986  1.9883089339363507  -21.98860187062406  39.28890477332317  23.770788383606753  16.46044573595558  110.2120793780603  11.430620539729489  -89.15785771808184  17.374860834769585  120.000000
7.18125  0.000000  0.000000  0.000000  -35.6764045431325  2.041319564813355  -21.399919767649415  39.39755897244055  23.469205169931634  16.00914863734111  112.93321519156574  11.229421273803192  -91.43637578609687  17.27302113142193  120.000000
7.2387  0.000000  0.000000  0.000000  -35.69077770107685  2.0719822750895527  -20.776348606926206  39.523020010307356  23.136897229156943  15.511228690420635  115.20643324897837  11.03287358006028  -93.4721046781034  17.234150497546285  120.000000
7.29615  0.000000  0.000000  0.000000  -35.72485728407392  2.0913363402041845  -20.11940775928547  39.66929814960602  22.787065233546564  14.98057558347682  117.05603031154524  10.839205364019286  -95.27617938257136  17.29531035867728  120.000000
7.3536  0.000000  0.000000  0.000000  -35.778019543562905  2.106097939738262  -19.43047297730508  39.8347226703029  22.422245577891562  14.437171255939926  118.53832609639429  10.639644951873144  -96.8722091465385  17.449657094587234  120.000000
7.41105  0.000000  0.000000  0.000000  -35.841365566134044  2.1201228839067148  -18.713729323796073  40.01985974670278  22.04265910962565  13.897359062063762  119.71704264899165  10.424336443319348  -98.2813784952854  17.66322871789234  120.000000
7.468500000000001  0.000000  0.000000  0.000000  -35.899731708497015  2.1385345107417253  -17.977966588531473  40.231263604246664  21.650237059891772  13.368289945983031  120.65240165337289  10.186872404039603  -99.52169299239138  17.898244891380003  120.000000
7.52595  0.000000  0.000000  0.000000  -35.94205893840628  2.1648758959084917  -17.234321056395228  40.47201679346536  21.246572154239264  12.85272198081856  121.40445910804281  9.923861282849108  -100.61976784721624  18.12863185963733  120.000000
7.5834  0.000000  0.000000  0.000000  -35.966356464337174  2.1992914992351986  -16.49337020294333  40.73669046213927  20.83229471115015  12.35337062467297  122.03523019163119  9.634882388135791  -101.61663945818144  18.3452769694192  120.000000
7.64085  0.000000  0.000000  0.000000  -35.977227853605015  2.2397455222719245  -15.763658707280193  41.01473065131071  20.40860639039852  11.87335753530641  122.60575369902676  9.323291310923477  -102.56252265229003  18.551606555507  120.000000
7.6983  0.000000  0.000000  0.000000  -35.98221964252498  2.2832732630020454  -15.051485908354929  41.29515677116222  19.9787913550882  11.415021069262496  123.17134471883347  8.9958241285421  -103.50817853171996  18.755148292598133  120.000000
7.75575  0.000000  0.000000  0.000000  -35.988446082112866  2.327207546669713  -14.361354892591564  41.56990411634952  19.548644466102882  10.978820658172962  123.77977753454147  8.66130571072024  -104.49913286180829  18.960701171214062  120.000000
7.8132  0.000000  0.000000  0.000000  -36.001347039546516  2.36876268521742  -13.696479675681442  41.835309464206425  19.125777548685306  10.56305183130478  124.46645841394597  8.329932948117431  -105.56855711506678  19.16776780448066  120.000000
7.87065  0.000000  0.000000  0.000000  -36.02372396388146  2.404132346483087  -13.059201670428097  42.092453386287296  18.718158754437024  10.164485273023988  125.25059493143277  8.012984108023215  -106.73140963209731  19.372460732228124  120.000000
7.928100000000001  0.000000  0.000000  0.000000  -36.057206938463075  2.426377298320692  -12.450591430312299  42.34365454649139  18.332363656117092  9.780169477798758  126.13491206366206  7.720656561088913  -107.98312292145822  19.57158337019794  120.000000
7.98555  0.000000  0.000000  0.000000  -36.10490073769619  2.4269166792274164  -11.869969430475296  42.58673139497107  17.97182744403501  9.40947855107336  127.1150015230655  7.45811180288718  -109.3080359267368  19.767083268866706  120.000000
8.043  0.000000  0.000000  0.000000  -36.16925606188707  2.400798979481362  -11.316576796873695  42.81620389592353  17.638385410362066  9.050420700247757  128.1774656722511  7.224162465458408  -110.67863894091579  19.968840049496773  120.000000
8.10045  0.000000  0.000000  0.000000  -36.24851824293197  2.349156742608966  -10.791615557587795  43.02484189428449  17.333865592902317  8.696416129533066  129.2939527242683  7.011473069924576  -112.05394814441343  20.191547925449036  120.000000
8.1579  0.000000  0.000000  0.000000  -36.33629244849573  2.278789125487324  -10.298873809152942  43.19744738372981  17.058502167983946  8.340413901635362  130.44217887766962  6.805117268453364  -113.40548391228347  20.445236495831175  120.000000
8.21535  0.000000  0.000000  0.000000  -36.422766171499454  2.2007685350241086  -9.8461739716592  43.30686664610221  16.80935658875346  7.981331501218575  131.60878201613795  6.5858521815631335  -114.72636498999915  20.72223933689863  120.000000
8.2728  0.000000  0.000000  0.000000  -36.49455186017353  2.131086930480902  -9.449632752177532  43.325139906161375  16.58157474113032  7.623251639223043  132.7345495032208  6.340151341965988  -115.97989996720524  20.989400604045336  120.000000
8.33025  0.000000  0.000000  0.000000  -36.53542861953922  2.0870641895183013  -9.135007855277472  43.23182594271182  16.371754154197966  7.271271296754297  133.65812416805164  6.064115422870472  -117.03855434658945  21.19291110370984  120.000000
8.3877  0.000000  0.000000  0.000000  -36.530793886651395  2.0801110696722946  -8.932654097163368  43.01200981352254  16.178715766545814  6.9350963903845635  134.08121191428452  5.763982305330255  -117.63662090661424  21.278147229508292  120.000000
8.44515  0.000000  0.000000  0.000000  -36.46541127745517  2.1092190583211647  -8.871696197759226  42.66219049022481  16.00446442905457  6.629555815618268  133.52129232412872  5.458193504115249  -117.30547081953033  21.215691446007654  120.000000
